<?xml version="1.0" encoding="iso-8859-1"?>
<!-- Generator: Adobe Illustrator 19.0.0, SVG Export Plug-In . SVG Version: 6.00 Build 0)  -->
<svg xmlns="http://www.w3.org/2000/svg" xmlns:xlink="http://www.w3.org/1999/xlink" version="1.1" id="Layer_1" x="0px" y="0px" viewBox="0 0 330.001 330.001" style="enable-background:new 0 0 330.001 330.001;" xml:space="preserve" width="512px" height="512px">
<g id="XMLID_351_">
	<path id="XMLID_352_" d="M298.019,1.142c-5.607-2.322-12.057-1.038-16.347,3.252l-31.819,31.819L218.034,4.394   c-2.814-2.813-6.628-4.394-10.607-4.394c-3.978,0-7.794,1.58-10.607,4.393L165,36.214l-31.82-31.82   c-2.813-2.813-6.628-4.393-10.606-4.393c-3.979,0-7.793,1.581-10.607,4.394L80.148,36.214L48.329,4.394   c-4.291-4.29-10.744-5.574-16.347-3.252c-5.605,2.322-9.26,7.792-9.26,13.858v300c0,8.284,6.716,15,15,15h254.557   c8.284,0,15-6.716,15-15v-300C307.279,8.934,303.624,3.464,298.019,1.142z M277.279,300.001H52.722V51.214l16.819,16.819   c2.814,2.813,6.628,4.394,10.607,4.394c3.979,0,7.793-1.581,10.607-4.394l31.819-31.819l31.82,31.82   c5.857,5.857,15.355,5.857,21.213,0l31.82-31.82l31.819,31.819c2.813,2.813,6.628,4.394,10.607,4.394   c3.979,0,7.794-1.581,10.607-4.394l16.819-16.819V300.001z" fill="#F39C12"/>
	<path id="XMLID_441_" d="M232.279,230.001H97.722c-8.284,0-15,6.716-15,15c0,8.284,6.716,15,15,15h134.557c8.284,0,15-6.716,15-15   C247.279,236.717,240.563,230.001,232.279,230.001z" fill="#F39C12"/>
	<path id="XMLID_443_" d="M97.722,200.001h74.557c8.284,0,15-6.716,15-15c0-8.284-6.716-15-15-15H97.722c-8.284,0-15,6.716-15,15   C82.722,193.285,89.438,200.001,97.722,200.001z" fill="#F39C12"/>
	<path id="XMLID_444_" d="M97.722,140.001h74.557c8.284,0,15-6.716,15-15s-6.716-15-15-15H97.722c-8.284,0-15,6.716-15,15   S89.438,140.001,97.722,140.001z" fill="#F39C12"/>
</g>
<g>
</g>
<g>
</g>
<g>
</g>
<g>
</g>
<g>
</g>
<g>
</g>
<g>
</g>
<g>
</g>
<g>
</g>
<g>
</g>
<g>
</g>
<g>
</g>
<g>
</g>
<g>
</g>
<g>
</g>
</svg>
